# AST/ASF file generated using VICON BodyLanguage
# -----------------------------------------------
:version 1.10
:name VICON
:units
  mass 1.0
  length 0.45
  angle deg
:documentation
   .ast/.asf automatically generated from VICON data using
   VICON BodyBuilder and BodyLanguage model FoxedUp or BRILLIANT.MOD
:root
   order TX TY TZ RX RY RZ
   axis XYZ
   position 0 0 0  
   orientation 0 0 0 
:bonedata
  begin
     id 1 
     name lhipjoint
     direction 0.528046 -0.759594 0.379717 
     length 2.39752 
     axis 0 0 0  XYZ
  end
  begin
     id 2 
     name lfemur
     direction 0.34202 -0.939693 0  
     length 7.31175  
     axis 0 0 20  XYZ
    dof rx ry rz
    limits (-160.0 20.0)
           (-70.0 70.0)
           (-60.0 70.0)
  end
  begin
     id 3 
     name ltibia
     direction 0.34202 -0.939693 0   
     length 7.52482   
     axis 0 0 20   XYZ
    dof rx
    limits (-10.0 170.0)
  end
  begin
     id 4 
     name lfoot
     direction 0.0675379 -0.185559 0.980309   
     length 2.00961   
     axis -90 7.62852e-016 20   XYZ
    dof rx rz
    limits (-45.0 90.0)
           (-70.0 20.0)
  end
  begin
     id 5 
     name ltoes
     direction 1.5352e-011 -4.22286e-011 1   
     length 1.01383   
     axis -90 7.62852e-016 20   XYZ
    dof rx
    limits (-90.0 20.0)
  end
  begin
     id 6 
     name rhipjoint
     direction -0.510274 -0.769251 0.384544   
     length 2.36742  
     axis 0 0 0  XYZ 
  end
  begin
     id 7 
     name rfemur
     direction -0.34202 -0.939693 0   
     length 7.45325   
     axis 0 0 -20   XYZ
    dof rx ry rz
    limits (-160.0 20.0)
           (-70.0 70.0)
           (-70.0 60.0)
  end
  begin
     id 8 
     name rtibia
     direction -0.34202 -0.939693 0   
     length 7.49587   
     axis 0 0 -20   XYZ
    dof rx
    limits (-10.0 170.0)
 end
 begin
     id 9 
     name rfoot
     direction -0.106475 -0.292536 0.950308   
     length 2.20898  
     axis -90 -7.62852e-016 -20   XYZ
    dof rx rz
    limits (-45.0 90.0)
           (-20.0 70.0)
  end
  begin
     id 10 
     name rtoes
     direction -1.53597e-011 -4.22023e-011 1   
     length 1.10065   
     axis -90 -7.62852e-016 -20   XYZ
    dof rx
    limits (-90.0 20.0)
  end
  begin
     id 11 
     name lowerback
     direction 0.0260024 0.998026 -0.0571652   
     length 2.11214   
     axis 0 0 0   XYZ
    dof rx ry rz
    limits (-20.0 45.0)
           (-30.0 30.0)
           (-30.0 30.0)
  end
  begin
     id 12 
     name upperback
     direction 0.0216202 0.999542 -0.0211766   
     length 2.11689   
     axis 0 0 0   XYZ
    dof rx ry rz
    limits (-20.0 45.0)
           (-30.0 30.0)
           (-30.0 30.0)
  end
  begin
     id 13 
     name thorax
     direction 0.00883312 0.999944 0.00589057   
     length 2.11821   
     axis 0 0 0   XYZ
    dof rx ry rz
    limits (-20.0 45.0)
           (-30.0 30.0)
           (-30.0 30.0)
  end
  begin
     id 14 
     name lowerneck
     direction -0.059386 0.994433 0.0870401   
     length 1.81176   
     axis 0 0 0   XYZ
    dof rx ry rz
    limits (-20.0 45.0)
           (-30.0 30.0)
           (-30.0 30.0)
  end
  begin
     id 15 
     name upperneck
     direction 0.0506457 0.97328 -0.223967   
     length 1.82382   
     axis 0 0 0   XYZ
    dof rx ry rz
    limits (-20.0 45.0)
           (-30.0 30.0)
           (-30.0 30.0)
  end
  begin
     id 16
     name head
     direction 0.0205902 0.996147 -0.0852487  
     length 1.84805  
     axis 0 0 0   XYZ
    dof rx ry rz
    limits (-20.0 45.0)
           (-30.0 30.0)
           (-30.0 30.0)
  end
  begin
     id 17 
     name lclavicle
     direction 0.949493 0.303881 -0.0782325  
     length 3.60584  
     axis 0 0 0   XYZ
    dof ry rz
    limits (-20.0 10.0)
           (0.0 20.0)
  end
  begin
     id 18 
     name lhumerus
     direction 1 -4.48965e-011 1.48782e-027   
     length 4.95681   
     axis 180 -30 -90   XYZ
    dof rx ry rz
    limits (-60.0 90.0)
           (-90.0 90.0)
           (-90.0 90.0)
  end
  begin
     id 19
     name lradius
     direction 1 -4.48952e-011 2.06528e-027   
     length 3.40915   
     axis 180 -30 -90   XYZ
    dof rx
    limits (-10.0 170.0)
  end
  begin
     id 20
     name lwrist
     direction 1 -4.48964e-011 1.28021e-027   
     length 1.70457   
     axis -1.61767e-015 90 90   XYZ
    dof ry
    limits (-180.0 0.0)
 end
  begin
     id 21 
     name lhand
     direction 1 -4.49094e-011 2.54887e-027   
     length 0.616403   
     axis -1.63363e-015 90 90   XYZ
    dof rx rz
    limits (-90.0 90.0)
           (-45.0 45.0)
  end
  begin
     id 22 
     name lfingers
     direction 1 -4.49002e-011 5.11407e-027   
     length 0.49696   
     axis -3.26723e-015 90 90   XYZ
    dof rx
    limits (0.0 90.0)
  end
  begin
     id 23
     name lthumb
     direction 0.707107 -6.34998e-011 0.707107   
     length 0.713539   
     axis -90 45 -2.25915e-014   XYZ
    dof rx rz
    limits (-45.0 45.0)
           (-45.0 45.0)
  end
  begin
     id 24 
     name rclavicle
     direction -0.937751 0.334612 -0.0930482   
     length 3.46287  
     axis 0 0 0   XYZ 
    dof ry rz
    limits (-10.0 20.0)
           (-20.0 0.0)
  end
  begin
     id 25 
     name rhumerus
     direction -1 -4.48962e-011 3.59972e-027  
     length 5.352   
     axis 180 30 90   XYZ
    dof rx ry rz
    limits (-90.0 60.0)
           (-90.0 90.0)
           (-90.0 90.0)
  end
  begin
     id 26 
     name rradius
     direction -1 -4.48987e-011 -3.76925e-027   
     length 3.43721   
     axis 180 30 90   XYZ
    dof rx
    limits (-10.0 170.0)
  end
  begin
     id 27 
     name rwrist
     direction -1 -4.48943e-011 1.28112e-027   
     length 1.7186   
     axis -1.61767e-015 -90 -90   XYZ
    dof ry
    limits (-180.0 0.0)
  end
  begin
     id 28
     name rhand
     direction -1 -4.49027e-011 2.55483e-027   
     length 0.72009   
     axis -1.63363e-015 -90 -90   XYZ
    dof rx rz
    limits (-90.0 90.0)
           (-45.0 45.0)
  end
  begin
     id 29
     name rfingers
     direction -1 -4.48827e-011 5.14506e-027   
     length 0.580555   
     axis -3.26723e-015 -90 -90   XYZ
    dof rx
    limits (0.0 90.0)
  end
  begin
     id 30
     name rthumb
     direction -0.707107 -6.34936e-011 0.707107   
     length 0.833564   
     axis -90 -45 2.25915e-014   XYZ
    dof rx rz
    limits (-45.0 45.0)
           (-45.0 45.0)
  end
:hierarchy
  begin
    root lhipjoint rhipjoint lowerback
    lhipjoint lfemur
    lfemur ltibia
    ltibia lfoot
    lfoot ltoes
    rhipjoint rfemur
    rfemur rtibia
    rtibia rfoot
    rfoot rtoes
    lowerback upperback
    upperback thorax
    thorax lowerneck lclavicle rclavicle
    lowerneck upperneck
    upperneck head
    lclavicle lhumerus
    lhumerus lradius
    lradius lwrist
    lwrist lhand lthumb
    lhand lfingers
    rclavicle rhumerus
    rhumerus rradius
    rradius rwrist
    rwrist rhand rthumb
    rhand rfingers
  end

#!OML:ASF H:\Terrain\Patient Classification 1\Terrain2\Thursday\justin.ASF
:FULLY-SPECIFIED
:DEGREES
133
root -12.7404 17.5442 -7.47723 -181.226 5.5564 -178.351
lowerback 5.41694 0.18004 -1.41248
upperback 3.29324 0.39964 2.24334
thorax 0.328659 0.253144 3.08162
lowerneck -11.8576 -4.70447 -7.91487
upperneck 42.5079 0.669247 1.7535
head 17.8826 1.08624 2.96796
rclavicle -7.7526e-015 1.19271e-015
rhumerus -31.9607 -10.5783 -79.2528
rradius 40.3323
rwrist -12.4525
rhand -18.7149 13.1177
rfingers 7.12502
rthumb 7.58037 -16.7264
lclavicle -7.7526e-015 1.19271e-015
lhumerus -31.2603 6.45634 83.118
lradius 28.0998
lwrist 0.930581
lhand -14.3728 26.1849
lfingers 7.12502
lthumb 11.7696 55.8342
rfemur -11.1454 -7.38348 18.5459
rtibia 65.3959
rfoot -8.88925 -8.05979
rtoes 1.61408
lfemur -10.1431 4.86802 -19.885
ltibia 15.8961
lfoot 3.27389 -20.3484
ltoes 17.3663
134
root -12.7502 17.5411 -7.53633 -181.173 5.29187 -178.441
lowerback 5.41591 0.147324 -1.42696
upperback 3.25031 0.347195 2.08924
thorax 0.288842 0.225441 2.93292
lowerneck -11.6819 -4.78521 -7.93582
upperneck 42.5428 0.411811 2.09796
head 17.8692 1.03454 3.08959
rclavicle 3.18055e-015 5.56597e-015
rhumerus -32.0009 -10.7793 -79.3474
rradius 40.8921
rwrist -12.6916
rhand -18.6472 13.2793
rfingers 7.12502
rthumb 7.64572 -16.5625
lclavicle 3.18055e-015 5.56597e-015
lhumerus -31.1369 5.84415 82.9461
lradius 28.8609
lwrist 1.50711
lhand -14.361 25.171
lfingers 7.12502
lthumb 11.781 54.8197
rfemur -11.6806 -7.83089 18.5343
rtibia 64.8945
rfoot -10.1762 -7.33519
rtoes 0.107252
lfemur -10.291 4.65634 -20.0427
ltibia 16.4405
lfoot 2.90836 -20.4038
ltoes 18.3882
135
root -12.7577 17.5342 -7.59424 -181.094 5.00854 -178.71
lowerback 5.1843 0.000796093 -1.86712
upperback 3.33723 0.134936 2.10012
thorax 0.521221 0.10918 3.20403
lowerneck -11.9974 -4.82329 -7.94073
upperneck 42.734 0.472353 1.94734
head 18.0691 1.0286 3.04557
rclavicle -1.73937e-014 1.19271e-014
rhumerus -31.7277 -10.5656 -79.3497
rradius 41.3528
rwrist -12.8648
rhand -18.5705 13.755
rfingers 7.12502
rthumb 7.71974 -16.0841
lclavicle -1.73937e-014 1.19271e-014
lhumerus -30.8265 6.13031 82.8534
lradius 29.4015
lwrist 1.98919
lhand -14.2941 23.5822
lfingers 7.12502
lthumb 11.8455 53.2272
rfemur -12.2019 -8.27775 18.3513
rtibia 64.2521
rfoot -11.8226 -6.60188
rtoes -1.72866
lfemur -10.5262 4.62815 -20.402
ltibia 17.0752
lfoot 2.4843 -20.664
ltoes 18.8827
136
root -12.7575 17.5228 -7.64356 -181.076 4.75067 -178.625
lowerback 5.1045 -0.170176 -2.07311
upperback 3.477 -0.0874658 2.24871
thorax 0.727487 -0.00577912 3.48481
lowerneck -12.0892 -4.79158 -8.0166
upperneck 42.4959 0.501568 1.77124
head 17.9512 0.975648 2.95978
rclavicle 2.2413e-014 1.98785e-015
rhumerus -31.5204 -10.1482 -79.4013
rradius 42.0191
rwrist -13.1112
rhand -18.6775 14.0235
rfingers 7.12502
rthumb 7.61643 -15.8194
lclavicle 2.2413e-014 1.98785e-015
lhumerus -30.242 6.47351 82.7581
lradius 29.5073
lwrist 1.85497
lhand -14.2843 23.4986
lfingers 7.12502
lthumb 11.8549 53.143
rfemur -12.5906 -8.61322 18.6576
rtibia 63.4636
rfoot -13.2926 -6.10313
rtoes -2.0854
lfemur -10.7393 4.82302 -20.324
ltibia 17.7687
lfoot 2.14122 -21.018
ltoes 18.373
137
root -12.7573 17.5109 -7.68985 -181.257 4.42071 -178.368
lowerback 5.47397 -0.337163 -1.99306
upperback 3.52187 -0.296476 2.32173
thorax 0.584228 -0.102157 3.5264
lowerneck -11.9124 -4.75665 -8.07854
upperneck 42.1961 0.400071 1.86334
head 17.7296 0.920473 2.96993
rclavicle 6.31141e-015 -2.50469e-014
rhumerus -31.5758 -9.8648 -79.5544
rradius 42.6593
rwrist -13.3469
rhand -19.0289 14.1904
rfingers 7.12502
rthumb 7.27727 -15.6645
lclavicle 6.31141e-015 -2.50469e-014
lhumerus -30.0631 6.15532 82.6703
lradius 29.9849
lwrist 2.14778
lhand -15.8491 22.8894
lfingers 7.12502
lthumb 10.3457 52.6149
rfemur -12.6629 -9.09736 19.1488
rtibia 62.5199
rfoot -14.1555 -5.83579
rtoes -1.995
lfemur -10.7816 4.72828 -20.0222
ltibia 18.5107
lfoot 1.89912 -21.1351
ltoes 18.7383
138
root -12.7579 17.5009 -7.73946 -181.427 4.12623 -178.146
lowerback 5.81315 -0.464611 -1.9104
upperback 3.49721 -0.457549 2.38095
thorax 0.382341 -0.175481 3.5516
lowerneck -12.0127 -4.78518 -7.99116
upperneck 42.3762 0.390868 1.85782
head 17.8627 0.93536 2.96404
rclavicle 1.35671e-014 -1.31198e-014
rhumerus -31.64 -9.59029 -79.6456
rradius 43.066
rwrist -13.5775
rhand -19.2062 14.2984
rfingers 7.12502
rthumb 7.10612 -15.5623
lclavicle 1.35671e-014 -1.31198e-014
lhumerus -30.0567 5.99925 82.5135
lradius 30.6108
lwrist 1.97764
lhand -18.2192 21.3844
lfingers 7.12502
lthumb 8.05874 51.2108
rfemur -12.7313 -9.46143 19.5995
rtibia 61.4423
rfoot -14.9547 -5.54764
rtoes -1.98112
lfemur -10.8106 4.56136 -19.7715
ltibia 19.2296
lfoot 1.41809 -21.2492
ltoes 18.657
139
root -12.7569 17.4913 -7.79246 -181.385 3.90335 -178.263
lowerback 5.74215 -0.381881 -2.06464
upperback 3.55285 -0.355359 2.27501
thorax 0.472149 -0.128038 3.52304
lowerneck -12.21 -4.94523 -7.8945
upperneck 42.5395 0.0757069 2.05968
head 18.0315 0.85238 2.99927
rclavicle 1.50579e-014 -7.95139e-016
rhumerus -31.6179 -9.81796 -79.6709
rradius 43.5509
rwrist -13.9956
rhand -19.4351 14.3039
rfingers 7.12502
rthumb 6.88514 -15.5642
lclavicle 1.50579e-014 -7.95139e-016
lhumerus -29.6239 5.44886 82.4381
lradius 31.17
lwrist 1.90206
lhand -12.7903 25.1836
lfingers 7.12502
lthumb 13.2953 54.7396
rfemur -13.0821 -9.60105 19.6816
rtibia 60.2975
rfoot -16.1749 -5.13292
rtoes -2.10346
lfemur -11.0213 4.55197 -19.9288
ltibia 19.8963
lfoot 0.70427 -21.5392
ltoes 17.2811
140
root -12.7608 17.4778 -7.8411 -181.236 3.5747 -178.7
lowerback 5.55448 -0.363349 -2.55628
upperback 3.58775 -0.358569 2.12061
thorax 0.616866 -0.142255 3.63993
lowerneck -12.1554 -5.00009 -7.89194
upperneck 42.4012 -0.132944 2.22002
head 17.9457 0.783731 3.02584
rclavicle -2.36057e-014 2.38542e-014
rhumerus -31.5874 -9.91421 -79.7012
rradius 44.1519
rwrist -14.4828
rhand -20.058 14.3089
rfingers 7.12502
rthumb 6.28379 -15.5779
lclavicle -2.36057e-014 2.38542e-014
lhumerus -29.0801 5.03062 82.408
lradius 31.5827
lwrist 2.23506
lhand -13.1932 24.656
lfingers 7.12502
lthumb 12.9069 54.2369
rfemur -13.524 -9.94664 19.3353
rtibia 59.1174
rfoot -17.3918 -4.59666
rtoes -2.48253
lfemur -11.3718 4.49233 -20.4824
ltibia 20.5557
lfoot 0.0244238 -21.8174
ltoes 15.9518
141
root -12.7622 17.4614 -7.88619 -181.108 3.20226 -178.649
lowerback 5.39986 -0.590788 -2.75762
upperback 3.61119 -0.665226 2.25334
thorax 0.758028 -0.302638 3.90464
lowerneck -12.2372 -4.89883 -7.91434
upperneck 42.366 0.0944282 2.03199
head 17.9322 0.836519 2.97809
rclavicle -1.36664e-014 -4.37326e-015
rhumerus -31.3653 -9.29371 -79.7798
rradius 44.5182
rwrist -14.7987
rhand -20.4851 14.2891
rfingers 7.12502
rthumb 5.87144 -15.6095
lclavicle -1.36664e-014 -4.37326e-015
lhumerus -28.63 5.37578 82.3206
lradius 31.9608
lwrist 2.29299
lhand -13.3507 24.624
lfingers 7.12502
lthumb 12.7551 54.2144
rfemur -13.8322 -10.3559 19.5643
rtibia 57.8715
rfoot -18.3048 -4.22859
rtoes -2.17291
lfemur -11.6911 4.42761 -20.4542
ltibia 21.1904
lfoot -0.463479 -22.0679
ltoes 15.035
